<svg xmlns="http://www.w3.org/2000/svg" viewBox="0 0 48 48">
    <rect fill="#f2f2f2" width="48" height="48" />
    <path fill="#d2d2d2" d="M32.5,17.308v10.157c0,.208-.053.38-.16.518-.107.137-.243.241-.407.311-.164.071-.33.095-.497.073s-.325-.106-.472-.254l-11.077-11.077c-.147-.147-.232-.305-.254-.472-.022-.167.003-.333.073-.497.071-.164.174-.3.311-.407.137-.107.31-.16.518-.16h10.157c.505,0,.933.175,1.283.525s.525.778.525,1.283ZM17.308,32.5c-.505,0-.933-.175-1.283-.525s-.525-.778-.525-1.283v-13.085l-1.227-1.227c-.138-.139-.209-.313-.213-.522-.003-.21.068-.387.213-.532.145-.145.321-.218.527-.218s.382.073.527.218l17.346,17.346c.138.139.209.313.213.522.003.209-.068.387-.213.532-.145.145-.32.217-.527.217s-.382-.072-.527-.217l-1.227-1.227h-13.085ZM26.627,28.75l-2.225-2.225-1.171,1.494-1.639-2.1c-.093-.114-.212-.171-.357-.171-.144,0-.263.06-.357.181l-1.577,2.098c-.121.154-.137.313-.05.477.087.164.221.246.402.246,0,0,6.973,0,6.973,0Z" />
</svg>