<svg xmlns="http://www.w3.org/2000/svg" width="512" height="512" viewBox="0 0 512 512">
  <defs>
    <linearGradient id="logo-gradient" x1="0%" y1="100%" x2="100%" y2="0%" gradientUnits="objectBoundingBox">
      <stop offset="0%" stop-color="#528bff"/>
      <stop offset="100%" stop-color="#52c4ff"/>
    </linearGradient>
  </defs>
  <rect fill="url(#logo-gradient)" width="512" height="512" rx="102" ry="102" />
  <path fill="#fff" d="M140.785,384.927c-3.885,0-7.142-1.315-9.768-3.944-2.629-2.627-3.944-5.883-3.944-9.768v-26.278c0-3.698.71-7.224,2.131-10.576,1.418-3.352,3.372-6.273,5.862-8.763l192.078-191.991c2.293-2.083,4.825-3.692,7.595-4.827,2.773-1.138,5.68-1.706,8.722-1.706s5.986.54,8.835,1.619c2.852,1.079,5.376,2.796,7.573,5.149l18.524,18.755c2.354,2.197,4.031,4.725,5.032,7.584,1.001,2.859,1.502,5.718,1.502,8.577,0,3.051-.521,5.962-1.562,8.733-1.042,2.773-2.699,5.306-4.971,7.599l-191.991,191.843c-2.49,2.49-5.411,4.444-8.763,5.862-3.352,1.421-6.877,2.131-10.576,2.131,0,0-26.278,0-26.278,0ZM340.212,190.691l21.963-21.819-19.047-19.047-21.819,21.963s18.903,18.903,18.903,18.903Z" />
</svg>
